<svg xmlns="http://www.w3.org/2000/svg" viewBox="0 0 65.63 65.38" id="star" fill="white">
  <g id="Layer_2">
    <path id="Шар_1" d="M65.27 31l-24.74-2.07L51 14.54a.4.4 0 0 0 0-.54.41.41 0 0 0-.51 0L36.32 24.21 33.19 1.08l-.1-.74A.31.31 0 0 0 33 .16a.36.36 0 0 0-.31-.16.39.39 0 0 0-.39.35l-2.75 23.87-13.68-9.56-.47-.33a.32.32 0 0 0-.18-.06.39.39 0 0 0-.37.63L25 28.25l-24.68 3a.4.4 0 0 0-.36.4.39.39 0 0 0 .37.39l25.21 2.31-10.03 14.82-.32.47a.27.27 0 0 0-.06.17.4.4 0 0 0 .12.35.41.41 0 0 0 .53 0l13.71-11.54L32.3 65a.39.39 0 0 0 .7.2.34.34 0 0 0 .09-.2l.1-1 2.54-25.17 14.2 10.56.55.41a.34.34 0 0 0 .19.07.39.39 0 0 0 .34-.11.41.41 0 0 0 0-.53L40 35l24.38-3.1.87-.11a.32.32 0 0 0 .19-.08.34.34 0 0 0 .16-.32.39.39 0 0 0-.33-.39zm-35.63-5.74a.41.41 0 0 0 .63-.29L32.69 4v27.48L19.13 17.92zM25.83 29a.42.42 0 0 0 .32-.24.44.44 0 0 0 0-.4l-8.88-11.6L32 31.44H5.69zm6.86 32v.1L30.2 37.79a.39.39 0 0 0-.24-.33.39.39 0 0 0-.15 0 .4.4 0 0 0-.26.1l-10.73 9 13.87-13.87zm0-28.81l-.09-.09-14.06 14 8.08-11.86a.36.36 0 0 0 0-.39.37.37 0 0 0-.32-.23L7.54 31.94h24.91l.15.15.09-.1zM33.19 7l2.43 18a.39.39 0 0 0 .63.27L47.69 17l-14.5 14.5zm2.45 30.8a.41.41 0 0 0-.4-.05.44.44 0 0 0-.24.33L33.19 56V32.68l12.86 12.86zm3.59-3.46a.4.4 0 0 0-.32.24.41.41 0 0 0 .09.42l9.51 12.29-15.21-15.2-.11.1V32h24.88zm-5.29-2.9l14-14L39.47 29a.4.4 0 0 0-.05.41.42.42 0 0 0 .33.23l20.86 1.77z"
     style="fill:#fbf9e3"></path>
  </g>
</svg>
