<?xml version="1.0" encoding="utf-8"?><!-- Uploaded to: SVG Repo, www.svgrepo.com, Generator: SVG Repo Mixer Tools -->
<svg width="800px" height="800px" viewBox="0 0 1024 1024" xmlns="http://www.w3.org/2000/svg">
   <defs>
      <filter id="dropShadow" x="-20%" y="-20%" width="140%" height="140%">
         <feGaussianBlur in="SourceAlpha" stdDeviation="5"/>
         <feOffset dx="5" dy="5" result="offsetblur"/>
         <feFlood flood-color="rgba(0,0,0,0.5)"/>
         <feComposite in2="offsetblur" operator="in"/>
         <feMerge>
            <feMergeNode/>
            <feMergeNode in="SourceGraphic"/>
         </feMerge>
      </filter>
   </defs>
   <circle cx="512" cy="512" r="512" style="fill:#13aa52; filter:url(#dropShadow)"/>
   <path d="M648.86 449.44c-32.34-142.73-108.77-189.66-117-207.59-9-12.65-18.12-35.15-18.12-35.15-.15-.38-.39-1.05-.67-1.7-.93 12.65-1.41 17.53-13.37 30.29-18.52 14.48-113.54 94.21-121.27 256.37-7.21 151.24 109.25 241.36 125 252.85l1.79 1.27v-.11c.1.76 5 36 8.44 73.34H526a726.68 726.68 0 0 1 13-78.53l1-.65a204.48 204.48 0 0 0 20.11-16.45l.72-.65c33.48-30.93 93.67-102.47 93.08-216.53a347.07 347.07 0 0 0-5.05-56.76zM512.35 659.12s0-212.12 7-212.08c5.46 0 12.53 273.61 12.53 273.61-9.72-1.17-19.53-45.03-19.53-61.53z" style="fill:#fff; filter:url(#dropShadow)"/>
</svg>